# xmcd CD database file
# Copyright (C) 1993-1998 Ti Kan
#
# Track frame offsets:
#  150
#  13459
#  30472
#  46410
#  62875
#  78857
#  92067
#  107792
#  129610
#  143325
#  167992
#  183797
#  197232
#  211700
#  227032
#  241380
#
# Disc length: 3462 seconds
#
# Revision: 1
# Processed by: cddbd v1.4b41PL1 Copyright (c) Steve Scherf et al.
# Submitted via: CDWizzard Release:4.35
#
DISCID=d50d8410
DTITLE=Phoenix Jazz and Swing Band - Phoenix Jazz and Swing Band Volume 5
DYEAR=1900
DGENRE=
TTITLE0=I Can't Stop Loving You
TTITLE1=You Made Me Love You
TTITLE2=Volga Boatman
TTITLE3=Day By Day
TTITLE4=Tenderly
TTITLE5=Medley: Jim Reed and Friends Quartet
TTITLE6=Pennies From Heaven
TTITLE7=Union Dues Blues
TTITLE8=Hey Daddy
TTITLE9=I've Got It Bad, And That Ain't Good
TTITLE10=I Wish I Knew
TTITLE11=What is This Thing Called Love
TTITLE12=Moonlight In Vermont
TTITLE13=When I Fall In Love
TTITLE14=The One I Love Belongs To Somebody Else
TTITLE15=Speak Low
EXTD=
EXTT0=
EXTT1=
EXTT2=
EXTT3=
EXTT4=
EXTT5=
EXTT6=
EXTT7=
EXTT8=
EXTT9=
EXTT10=
EXTT11=
EXTT12=
EXTT13=
EXTT14=
EXTT15=
PLAYORDER=
